<svg class="icon" style="width: 1em;height: 1em;vertical-align: middle;fill: currentColor;overflow: hidden;" viewBox="0 0 1024 1024" version="1.1" xmlns="http://www.w3.org/2000/svg" p-id="7480"><path d="M894.6 820H129.4c-30 0-54.5-20.2-54.5-45.1V395.3c0-24.9 24.4-45.1 54.5-45.1h765.1c30 0 54.5 20.2 54.5 45.1v379.6c0 24.8-24.4 45.1-54.4 45.1zM129.4 370.2c-18.7 0-34.5 11.5-34.5 25.1v379.6c0 13.6 15.8 25.1 34.5 25.1h765.1c18.7 0 34.5-11.5 34.5-25.1V395.3c0-13.6-15.8-25.1-34.5-25.1H129.4z" fill="#0071BC" p-id="7481"></path><path d="M532.9 370.2c-4.9 0-9.1-3.6-9.9-8.5-0.5-3.3-11.4-80.4 27.8-125.8 18.2-21.1 43.9-31.8 76.4-31.8 5.5 0 10 4.5 10 10s-4.5 10-10 10c-26.4 0-47 8.3-61.2 24.8-33.2 38.4-23.3 109.2-23.2 109.9 0.8 5.5-3 10.5-8.4 11.3-0.6 0-1.1 0.1-1.5 0.1zM594.4 731.8H159.1c-5.5 0-10-4.5-10-10v-96.3c0-5.5 4.5-10 10-10h435.4c5.5 0 10 4.5 10 10v96.3c-0.1 5.5-4.6 10-10.1 10z m-425.3-20h415.4v-76.3H169.1v76.3zM255.2 559.4h-93.9c-5.5 0-10-4.5-10-10v-93.9c0-5.5 4.5-10 10-10h93.9c5.5 0 10 4.5 10 10v93.9c0 5.5-4.5 10-10 10z m-83.8-20h73.9v-73.9h-73.9v73.9zM425.2 559.4h-93.9c-5.5 0-10-4.5-10-10v-93.9c0-5.5 4.5-10 10-10h93.9c5.5 0 10 4.5 10 10v93.9c0 5.5-4.5 10-10 10z m-83.9-20h73.9v-73.9h-73.9v73.9zM594.4 559.4h-93.9c-5.5 0-10-4.5-10-10v-93.9c0-5.5 4.5-10 10-10h93.9c5.5 0 10 4.5 10 10v93.9c0 5.5-4.5 10-10 10z m-83.9-20h73.9v-73.9h-73.9v73.9zM864.7 729.3H670.5c-5.5 0-10-4.5-10-10v-93.9c0-5.5 4.5-10 10-10h90.3V460.6c0-5.5 4.5-10 10-10h93.9c5.5 0 10 4.5 10 10v258.7c0 5.6-4.5 10-10 10z m-184.2-20h174.2V470.6h-73.9v154.8c0 5.5-4.5 10-10 10h-90.3v73.9z" fill="#0071BC" p-id="7482"></path><path d="M894.6 820H129.4c-30 0-54.5-20.2-54.5-45.1V395.3c0-24.9 24.4-45.1 54.5-45.1h765.1c30 0 54.5 20.2 54.5 45.1v379.6c0 24.8-24.4 45.1-54.4 45.1zM129.4 370.2c-18.7 0-34.5 11.5-34.5 25.1v379.6c0 13.6 15.8 25.1 34.5 25.1h765.1c18.7 0 34.5-11.5 34.5-25.1V395.3c0-13.6-15.8-25.1-34.5-25.1H129.4z" fill="#0071BC" p-id="7483"></path><path d="M532.9 370.2c-4.9 0-9.1-3.6-9.9-8.5-0.5-3.3-11.4-80.4 27.8-125.8 18.2-21.1 43.9-31.8 76.4-31.8 5.5 0 10 4.5 10 10s-4.5 10-10 10c-26.4 0-47 8.3-61.2 24.8-33.2 38.4-23.3 109.2-23.2 109.9 0.8 5.5-3 10.5-8.4 11.3-0.6 0-1.1 0.1-1.5 0.1z" fill="#0071BC" p-id="7484"></path><path d="M594.4 731.8H159.1c-5.5 0-10-4.5-10-10v-96.3c0-5.5 4.5-10 10-10h435.4c5.5 0 10 4.5 10 10v96.3c-0.1 5.5-4.6 10-10.1 10z m-425.3-20h415.4v-76.3H169.1v76.3z" fill="#F15A24" p-id="7485"></path><path d="M255.2 559.4h-93.9c-5.5 0-10-4.5-10-10v-93.9c0-5.5 4.5-10 10-10h93.9c5.5 0 10 4.5 10 10v93.9c0 5.5-4.5 10-10 10z m-83.8-20h73.9v-73.9h-73.9v73.9zM425.2 559.4h-93.9c-5.5 0-10-4.5-10-10v-93.9c0-5.5 4.5-10 10-10h93.9c5.5 0 10 4.5 10 10v93.9c0 5.5-4.5 10-10 10z m-83.9-20h73.9v-73.9h-73.9v73.9zM594.4 559.4h-93.9c-5.5 0-10-4.5-10-10v-93.9c0-5.5 4.5-10 10-10h93.9c5.5 0 10 4.5 10 10v93.9c0 5.5-4.5 10-10 10z m-83.9-20h73.9v-73.9h-73.9v73.9zM864.7 729.3H670.5c-5.5 0-10-4.5-10-10v-93.9c0-5.5 4.5-10 10-10h90.3V460.6c0-5.5 4.5-10 10-10h93.9c5.5 0 10 4.5 10 10v258.7c0 5.6-4.5 10-10 10z m-184.2-20h174.2V470.6h-73.9v154.8c0 5.5-4.5 10-10 10h-90.3v73.9z" fill="#0071BC" p-id="7486"></path></svg>